# File units = meters
mtllib octagonalmesh.mtl
g Part 1
v 0.100762 0.0492929 -0.0204178 
v 0 0.0492929 -0.0204178 
v 0 0.0492929 0.0204178 
v 0.100762 0.0492929 0.0204178 
v 0 0.0204178 0.0492929 
v 0.100762 0.0204178 0.0492929 
v 0 -0.0204178 0.0492929 
v 0.100762 -0.0204178 0.0492929 
v 0 -0.0492929 0.0204178 
v 0.100762 -0.0492929 0.0204178 
v 0 -0.0492929 -0.0204178 
v 0.100762 -0.0492929 -0.0204178 
v 0 0.0204178 -0.0492929 
v 0 -0.0204178 -0.0492929 
v 0.100762 -0.0204178 -0.0492929 
v 0.100762 0.0204178 -0.0492929 
vn 0 1 3.39845e-16 
vn 0 0.707107 0.707107 
vn 0 0 1 
vn 0 -0.707107 0.707107 
vn 0 -1 0 
vn -1 0 0 
vn 1 0 0 
vn 0 -0.707107 -0.707107 
vn 0 0 -1 
vn 0 0.707107 -0.707107 
usemtl 0.615686_0.811765_0.929412_0.000000_0.000000
o mesh0
f 1//1 2//1 3//1 
f 3//1 4//1 1//1 
o mesh1
f 4//2 3//2 5//2 
f 5//2 6//2 4//2 
o mesh2
f 6//3 5//3 7//3 
f 7//3 8//3 6//3 
o mesh3
f 8//4 7//4 9//4 
f 9//4 10//4 8//4 
o mesh4
f 10//5 9//5 11//5 
f 11//5 12//5 10//5 
o mesh5
f 3//6 13//6 14//6 
f 11//6 7//6 5//6 
f 3//6 2//6 13//6 
f 11//6 9//6 7//6 
f 5//6 3//6 11//6 
f 14//6 11//6 3//6 
o mesh6
f 12//7 4//7 6//7 
f 4//7 15//7 16//7 
f 6//7 8//7 12//7 
f 4//7 12//7 15//7 
f 16//7 1//7 4//7 
f 8//7 10//7 12//7 
o mesh7
f 12//8 11//8 14//8 
f 14//8 15//8 12//8 
o mesh8
f 15//9 14//9 13//9 
f 13//9 16//9 15//9 
o mesh9
f 16//10 13//10 2//10 
f 2//10 1//10 16//10 
